<svg xmlns="http://www.w3.org/2000/svg" viewBox="0 0 98.3016 100.02161"><title>WOTXT</title><path d="M79.4604,12.74007q-.914-.51144-1.86453-.96609A38.82463,38.82463,0,0,0,30.304,70.82141,27.48088,27.48088,0,0,0,4.26242,62.78869q-.35919-1.25592-.62655-2.533A47.5005,47.5005,0,0,1,79.4604,12.74007Z" style="fill:none;stroke:#231f20;stroke-miterlimit:10;stroke-width:5px"/><path d="M89.44046,27.45681a9.39712,9.39712,0,1,1-2.391-7.19688c.32312.3933.62582.79467.928,1.196A9.305,9.305,0,0,1,89.44046,27.45681Z" style="fill:none;stroke:#231f20;stroke-linejoin:round;stroke-width:5px"/><path d="M87.0495,20.25993a9.2878,9.2878,0,0,0-6.03241-3.04157,9.39578,9.39578,0,0,0-2.84877.15345A29.08618,29.08618,0,0,0,47.76341,61.76328,27.46,27.46,0,0,0,27.8111,50.02561,27.15244,27.15244,0,0,0,22.101,50.06a38.82782,38.82782,0,0,1,55.5-38.29c.63366.30311,1.25517.62514,1.85481.96514A46.83513,46.83513,0,0,1,87.0495,20.25993Z" style="fill:none;stroke:#231f20;stroke-linejoin:round;stroke-width:5px"/><path d="M95.8016,62.63747c-.20324.74376-.42543,1.47561-.67775,2.20451a38.77748,38.77748,0,0,1-43.4294,19.65633A37.99818,37.99818,0,0,1,43.965,81.753a38.64362,38.64362,0,0,1-11.941-8.89445A22.37219,22.37219,0,0,0,30.304,70.82141a38.992,38.992,0,0,1-8.20859-20.75748A27.53256,27.53256,0,0,1,47.75829,61.76729c.09669.14008.18366.27921.28035.41929a29.08461,29.08461,0,0,0,47.763.45089Z" style="fill:none;stroke:#231f20;stroke-linejoin:round;stroke-width:5px"/><path d="M95.12385,64.842a46.1618,46.1618,0,0,1-2.30962,5.74247A47.49291,47.49291,0,0,1,4.26242,62.78869,27.48088,27.48088,0,0,1,30.304,70.82141c.54516.69638,1.12143,1.37569,1.72005,2.03713A38.64362,38.64362,0,0,0,43.965,81.753a37.99818,37.99818,0,0,0,7.72945,2.74532A38.77748,38.77748,0,0,0,95.12385,64.842Z" style="fill:none;stroke:#231f20;stroke-miterlimit:10;stroke-width:5px"/></svg>