<svg xmlns="http://www.w3.org/2000/svg" viewBox="0 0 1947.048 2760.025">
  <defs>
    <style>
      .cls-1, .cls-10, .cls-11, .cls-12, .cls-13, .cls-14, .cls-15, .cls-16, .cls-17, .cls-18, .cls-19, .cls-2, .cls-20, .cls-21, .cls-22, .cls-23, .cls-24, .cls-25, .cls-26, .cls-27, .cls-28, .cls-29, .cls-3, .cls-30, .cls-31, .cls-32, .cls-33, .cls-34, .cls-35, .cls-36, .cls-37, .cls-38, .cls-39, .cls-4, .cls-40, .cls-41, .cls-42, .cls-43, .cls-44, .cls-45, .cls-46, .cls-47, .cls-48, .cls-49, .cls-5, .cls-50, .cls-51, .cls-52, .cls-53, .cls-54, .cls-55, .cls-56, .cls-57, .cls-58, .cls-59, .cls-6, .cls-60, .cls-7, .cls-8, .cls-9 {
        fill: none;
        stroke-miterlimit: 10;
        stroke-width: 2.846px;
      }

      .cls-1 {
        stroke: #ffd1ff;
      }

      .cls-2 {
        stroke: #ffd1fe;
      }

      .cls-3 {
        stroke: #ffd1fd;
      }

      .cls-4 {
        stroke: #ffd1fc;
      }

      .cls-5 {
        stroke: #ffd1fb;
      }

      .cls-6 {
        stroke: #ffd1fa;
      }

      .cls-7 {
        stroke: #ffd1f9;
      }

      .cls-8 {
        stroke: #fed1f8;
      }

      .cls-9 {
        stroke: #fed1f7;
      }

      .cls-10 {
        stroke: #fed1f6;
      }

      .cls-11 {
        stroke: #fed1f5;
      }

      .cls-12 {
        stroke: #fed1f4;
      }

      .cls-13 {
        stroke: #fed1f3;
      }

      .cls-14 {
        stroke: #fed1f2;
      }

      .cls-15 {
        stroke: #fed1f1;
      }

      .cls-16 {
        stroke: #fed1f0;
      }

      .cls-17 {
        stroke: #fed1ef;
      }

      .cls-18 {
        stroke: #fed1ee;
      }

      .cls-19 {
        stroke: #fdd1ed;
      }

      .cls-20 {
        stroke: #fdd1ec;
      }

      .cls-21 {
        stroke: #fdd1eb;
      }

      .cls-22 {
        stroke: #fdd1ea;
      }

      .cls-23 {
        stroke: #fdd1e9;
      }

      .cls-24 {
        stroke: #fdd1e8;
      }

      .cls-25 {
        stroke: #fdd1e7;
      }

      .cls-26 {
        stroke: #fdd1e6;
      }

      .cls-27 {
        stroke: #fdd1e5;
      }

      .cls-28 {
        stroke: #fdd1e4;
      }

      .cls-29 {
        stroke: #fdd1e3;
      }

      .cls-30 {
        stroke: #fdd1e2;
      }

      .cls-31 {
        stroke: #fcd0e1;
      }

      .cls-32 {
        stroke: #fcd0e0;
      }

      .cls-33 {
        stroke: #fcd0df;
      }

      .cls-34 {
        stroke: #fcd0de;
      }

      .cls-35 {
        stroke: #fcd0dd;
      }

      .cls-36 {
        stroke: #fcd0dc;
      }

      .cls-37 {
        stroke: #fcd0db;
      }

      .cls-38 {
        stroke: #fcd0da;
      }

      .cls-39 {
        stroke: #fcd0d9;
      }

      .cls-40 {
        stroke: #fcd0d8;
      }

      .cls-41 {
        stroke: #fcd0d7;
      }

      .cls-42 {
        stroke: #fcd0d6;
      }

      .cls-43 {
        stroke: #fbd0d5;
      }

      .cls-44 {
        stroke: #fbd0d4;
      }

      .cls-45 {
        stroke: #fbd0d3;
      }

      .cls-46 {
        stroke: #fbd0d2;
      }

      .cls-47 {
        stroke: #fbd0d1;
      }

      .cls-48 {
        stroke: #fbd0d0;
      }

      .cls-49 {
        stroke: #fbd0cf;
      }

      .cls-50 {
        stroke: #fbd0ce;
      }

      .cls-51 {
        stroke: #fbd0cd;
      }

      .cls-52 {
        stroke: #fbd0cc;
      }

      .cls-53 {
        stroke: #fbd0cb;
      }

      .cls-54 {
        stroke: #fad0ca;
      }

      .cls-55 {
        stroke: #fad0c9;
      }

      .cls-56 {
        stroke: #fad0c8;
      }

      .cls-57 {
        stroke: #fad0c7;
      }

      .cls-58 {
        stroke: #fad0c6;
      }

      .cls-59 {
        stroke: #fad0c5;
      }

      .cls-60 {
        stroke: #fad0c4;
      }
    </style>
  </defs>
  <g id="Group_1" data-name="Group 1" transform="translate(0.025 0.025)">
    <path id="Path_76" data-name="Path 76" class="cls-1" d="M1064.8,1.2c256.7,151.9,599,557.9,471.5,920.9s-398.8,516.4-297.5,966.5,706.8,623.2,706.8,871.4"/>
    <path id="Path_77" data-name="Path 77" class="cls-2" d="M1047.4,7.3c255.8,151.4,595.7,554,468.7,915.9S1118,1439,1219,1887.5c100.9,448.6,702.8,621,702.8,868.3"/>
    <path id="Path_78" data-name="Path 78" class="cls-3" d="M1029.9,13.3c255,150.9,592.5,550.1,465.9,910.8s-397.3,515.3-296.7,962.3,698.8,618.7,698.8,865.3"/>
    <path id="Path_79" data-name="Path 79" class="cls-4" d="M1012.5,19.4c254.2,150.4,589.3,546.2,463.1,905.7s-396.6,514.7-296.3,960.3,694.8,616.4,694.8,862.2"/>
    <path id="Path_80" data-name="Path 80" class="cls-5" d="M995.1,25.5c253.3,149.9,586.1,542.3,460.3,900.6s-395.9,514.1-295.9,958.2,690.8,614.2,690.8,859.1"/>
    <path id="Path_81" data-name="Path 81" class="cls-6" d="M977.6,31.5C1230.1,181,1560.5,569.9,1435.2,927s-395.1,513.5-295.5,956.1,686.9,611.9,686.9,856.1"/>
    <path id="Path_82" data-name="Path 82" class="cls-7" d="M960.2,37.6C1211.8,186.5,1539.9,572.1,1415,928s-394.4,512.9-295.1,954.1,682.9,609.7,682.9,853"/>
    <path id="Path_83" data-name="Path 83" class="cls-8" d="M942.7,43.6c250.8,148.4,576.5,530.6,452,885.3s-393.7,512.4-294.7,952,678.9,607.4,678.9,849.9"/>
    <path id="Path_84" data-name="Path 84" class="cls-9" d="M925.3,49.7c249.9,147.9,573.3,526.7,449.2,880.2s-393,511.8-294.4,950S1755,2485,1755,2726.7"/>
    <path id="Path_85" data-name="Path 85" class="cls-10" d="M907.8,55.7c249.1,147.4,570.1,522.8,446.4,875.1S962,1442,1060.2,1878.7c98.3,436.7,670.9,602.9,670.9,843.8"/>
    <path id="Path_86" data-name="Path 86" class="cls-11" d="M890.4,61.8c248.2,146.9,566.9,518.9,443.6,870s-391.5,510.6-293.6,945.8,666.9,600.7,666.9,840.7"/>
    <path id="Path_87" data-name="Path 87" class="cls-12" d="M872.9,67.9c247.4,146.4,563.7,515,440.8,864.9s-390.8,510-293.2,943.8,662.9,598.4,662.9,837.6"/>
    <path id="Path_88" data-name="Path 88" class="cls-13" d="M855.5,73.9c246.6,146,560.5,511.1,438.1,859.8s-390.1,509.4-292.8,941.7,658.9,596.2,658.9,834.6"/>
    <path id="Path_89" data-name="Path 89" class="cls-14" d="M838.1,80c245.7,145.4,557.3,507.2,435.3,854.7S884,1443.6,981,1874.3s654.9,593.9,654.9,831.5"/>
    <path id="Path_90" data-name="Path 90" class="cls-15" d="M820.6,86c244.9,144.9,554.1,503.3,432.5,849.6s-388.6,508.3-292,937.6S1612,2464.9,1612,2701.6"/>
    <path id="Path_91" data-name="Path 91" class="cls-16" d="M803.2,92.1c244,144.4,550.9,499.4,429.7,844.5S845,1444.3,941.2,1872.1s646.9,589.4,646.9,825.4"/>
    <path id="Path_92" data-name="Path 92" class="cls-16" d="M785.7,98.1c243.2,143.9,547.7,495.5,426.9,839.4S825.5,1444.7,921.4,1871s642.9,587.1,642.9,822.3"/>
    <path id="Path_93" data-name="Path 93" class="cls-17" d="M768.3,104.2c242.3,143.4,544.5,491.6,424.1,834.3S806,1445.1,901.6,1869.9s639,584.9,639,819.2"/>
    <path id="Path_94" data-name="Path 94" class="cls-18" d="M750.8,110.3C992.3,253.2,1292.1,598,1172.1,939.5c-119.9,341.5-385.7,505.9-290.5,929.3s635,582.6,635,816.1"/>
    <path id="Path_95" data-name="Path 95" class="cls-19" d="M733.4,116.3C974,258.7,1271.5,600.1,1152,940.5c-119.5,340.3-385,505.4-290.1,927.2s631,580.4,631,813.1"/>
    <path id="Path_96" data-name="Path 96" class="cls-20" d="M715.9,122.4c239.8,141.9,534.9,479.9,415.8,819.1S747.4,1446.2,842,1866.6s627,578.1,627,810"/>
    <path id="Path_97" data-name="Path 97" class="cls-21" d="M698.5,128.4c238.9,141.4,531.7,476,413,814s-383.6,504.2-289.3,923.1,623,575.9,623,806.9"/>
    <path id="Path_98" data-name="Path 98" class="cls-22" d="M681.1,134.5c238.1,140.9,528.4,472.1,410.2,808.9s-382.8,503.6-288.9,921,619,573.6,619,803.9"/>
    <path id="Path_99" data-name="Path 99" class="cls-23" d="M663.6,140.5C900.9,281,1188.9,608.7,1071,944.3s-382.1,503-288.5,919,615,571.4,615,800.8"/>
    <path id="Path_100" data-name="Path 100" class="cls-24" d="M646.2,146.6c236.4,139.9,522,464.3,404.6,798.7s-381.4,502.4-288.1,916.9,611,569.1,611,797.7"/>
    <path id="Path_101" data-name="Path 101" class="cls-25" d="M628.7,152.6C864.3,292,1147.5,613,1030.6,946.2s-380.7,501.9-287.7,914.9,607,566.9,607,794.6"/>
    <path id="Path_102" data-name="Path 102" class="cls-26" d="M611.3,158.7C846,297.6,1126.9,615.2,1010.4,947.2S630.4,1448.5,723,1860s603,564.6,603,791.6"/>
    <path id="Path_103" data-name="Path 103" class="cls-27" d="M593.8,164.8c233.9,138.4,512.4,452.6,396.3,783.4s-379.2,500.7-286.9,910.7,599,562.4,599,788.5"/>
    <path id="Path_104" data-name="Path 104" class="cls-28" d="M576.4,170.8c233,137.9,509.2,448.7,393.5,778.3s-378.5,500.1-286.6,908.7,595,560.1,595,785.4"/>
    <path id="Path_105" data-name="Path 105" class="cls-29" d="M558.9,176.9c232.2,137.4,506,444.8,390.7,773.2s-377.8,499.5-286.2,906.6,591.1,557.8,591.1,782.4"/>
    <path id="Path_106" data-name="Path 106" class="cls-30" d="M541.5,182.9c231.3,137,502.8,440.9,387.9,768.1s-377,499-285.7,904.6,587.1,555.6,587.1,779.3"/>
    <path id="Path_107" data-name="Path 107" class="cls-31" d="M524.1,189c230.5,136.4,499.6,437,385.1,763s-376.3,498.4-285.4,902.5,583.1,553.3,583.1,776.2"/>
    <path id="Path_108" data-name="Path 108" class="cls-32" d="M506.6,195C736.3,331,1003,628.2,889,953s-375.6,497.8-285,900.4,579.1,551.1,579.1,773.1"/>
    <path id="Path_109" data-name="Path 109" class="cls-33" d="M489.2,201.1C718,336.5,982.4,630.3,868.7,953.9s-374.9,497.2-284.6,898.3,575.1,548.8,575.1,770.1"/>
    <path id="Path_110" data-name="Path 110" class="cls-34" d="M471.7,207.2c228,134.9,490,425.3,376.8,747.7s-374.2,496.6-284.2,896.3,571.1,546.6,571.1,767"/>
    <path id="Path_111" data-name="Path 111" class="cls-35" d="M454.3,213.2c227.1,134.4,486.8,421.4,374,742.6s-373.4,496-283.8,894.2,567.1,544.3,567.1,763.9"/>
    <path id="Path_112" data-name="Path 112" class="cls-36" d="M436.8,219.3C663.1,353.2,920.4,636.8,808,956.8s-372.7,495.4-283.4,892.1,563.1,542.1,563.1,760.9"/>
    <path id="Path_113" data-name="Path 113" class="cls-37" d="M419.4,225.3C644.8,358.7,899.8,638.9,787.8,957.7s-372,494.9-283,890.1,559.1,539.8,559.1,757.8"/>
    <path id="Path_114" data-name="Path 114" class="cls-38" d="M401.9,231.4C626.5,364.3,879.1,641.1,767.6,958.7s-371.3,494.3-282.7,888S1040,2384.3,1040,2601.4"/>
    <path id="Path_115" data-name="Path 115" class="cls-39" d="M384.5,237.4c223.7,132.4,474,405.8,362.9,722.2s-370.5,493.7-282.3,885.9,551.1,535.3,551.1,751.7"/>
    <path id="Path_116" data-name="Path 116" class="cls-40" d="M367.1,243.5C590,375.4,837.9,645.4,727.2,960.7s-369.8,493.1-281.9,883.9,547.1,533.1,547.1,748.6"/>
    <path id="Path_117" data-name="Path 117" class="cls-41" d="M349.6,249.6c222,131.4,467.6,398,357.3,712.1s-369.1,492.5-281.5,881.8S968.6,2374.3,968.6,2589"/>
    <path id="Path_118" data-name="Path 118" class="cls-42" d="M332.2,255.6c221.2,130.9,464.4,394.1,354.5,707s-368.4,491.9-281.1,879.8,539.2,528.5,539.2,742.4"/>
    <path id="Path_119" data-name="Path 119" class="cls-43" d="M314.7,261.7C535.1,392.1,775.9,651.9,666.4,963.6S298.8,1455,385.7,1841.3s535.2,526.3,535.2,739.4"/>
    <path id="Path_120" data-name="Path 120" class="cls-44" d="M297.3,267.7C516.8,397.6,755.2,654,646.2,964.5s-366.9,490.8-280.3,875.6,531.2,524,531.2,736.3"/>
    <path id="Path_121" data-name="Path 121" class="cls-45" d="M279.8,273.8C498.5,403.2,734.6,656.2,626,965.5S259.8,1455.7,346.1,1839s527.2,521.8,527.2,733.2"/>
    <path id="Path_122" data-name="Path 122" class="cls-45" d="M262.4,279.8C480.2,408.7,713.9,658.3,605.8,966.4S240.3,1456,326.2,1837.9s523.2,519.5,523.2,730.2"/>
    <path id="Path_123" data-name="Path 123" class="cls-46" d="M244.9,285.9c217,128.4,448.3,374.6,340.6,681.5s-364.8,489-279.1,869.4,519.2,517.3,519.2,727.1"/>
    <path id="Path_124" data-name="Path 124" class="cls-47" d="M227.5,292C443.6,419.9,672.6,662.7,565.3,968.4s-364,488.4-278.8,867.4,515.2,515,515.2,724"/>
    <path id="Path_125" data-name="Path 125" class="cls-48" d="M210.1,298C425.4,425.4,652,664.8,545.1,969.3s-363.3,487.9-278.4,865.3,511.2,512.8,511.2,720.9"/>
    <path id="Path_126" data-name="Path 126" class="cls-49" d="M192.6,304.1C407.1,431,631.3,667,524.8,970.3s-362.6,487.3-278,863.2S754,2344,754,2551.4"/>
    <path id="Path_127" data-name="Path 127" class="cls-50" d="M175.2,310.1c213.6,126.4,435.5,359,329.4,661.1S142.8,1457.9,227,1832.4s503.2,508.3,503.2,714.8"/>
    <path id="Path_128" data-name="Path 128" class="cls-51" d="M157.7,316.2C370.4,442.1,590,671.3,484.4,972.2s-361.1,486.1-277.2,859.1,499.2,506,499.2,711.7"/>
    <path id="Path_129" data-name="Path 129" class="cls-52" d="M140.3,322.2C352.2,447.6,569.4,673.4,464.2,973.1s-360.4,485.5-276.8,857,495.3,503.8,495.3,708.7"/>
    <path id="Path_130" data-name="Path 130" class="cls-53" d="M122.8,328.3C333.9,453.2,548.7,675.6,443.9,974.1S84.2,1459,167.5,1829.1s491.3,501.5,491.3,705.6"/>
    <path id="Path_131" data-name="Path 131" class="cls-54" d="M105.4,334.4C315.6,458.8,528.1,677.8,423.7,975.1s-359,484.4-276,852.9S635,2327.2,635,2530.5"/>
    <path id="Path_132" data-name="Path 132" class="cls-55" d="M87.9,340.4C297.3,464.3,507.4,679.9,403.4,976S45.2,1459.8,127.8,1826.8s483.3,497,483.3,699.4"/>
    <path id="Path_133" data-name="Path 133" class="cls-56" d="M70.5,346.5C279,469.9,486.8,682.1,383.2,977S25.7,1460.2,108,1825.8s479.3,494.7,479.3,696.4"/>
    <path id="Path_134" data-name="Path 134" class="cls-57" d="M53.1,352.5C260.7,475.5,466.1,684.3,363,978S6.2,1460.6,88.2,1824.7,563.5,2317.2,563.5,2518"/>
    <path id="Path_135" data-name="Path 135" class="cls-58" d="M35.6,358.6C242.4,481,445.5,686.4,342.8,978.9s-356.1,482-274.5,844.6,471.3,490.2,471.3,690.2"/>
    <path id="Path_136" data-name="Path 136" class="cls-59" d="M18.2,364.6c206,121.9,406.7,323.9,304.4,615.3S-32.8,1461.3,48.5,1822.5s467.3,488,467.3,687.2"/>
    <path id="Path_137" data-name="Path 137" class="cls-60" d="M.7,370.7c205.1,121.4,403.5,320,301.6,610.2S-52.3,1461.8,28.6,1821.4,492,2307.1,492,2505.5"/>
  </g>
</svg>
