<svg xmlns="http://www.w3.org/2000/svg" viewBox="0 0 678.153 35.46">
  <defs>
    <style>
      .cls-1 {
        fill: none;
        stroke: #17c0f2;
        stroke-miterlimit: 10;
        stroke-width: 11px;
      }
    </style>
  </defs>
  <g id="Group_48" data-name="Group 48" transform="translate(-80.066 -494.5)">
    <g id="Group_7" data-name="Group 7" transform="translate(82.7 497.975)">
      <g id="Group_2" data-name="Group 2" transform="translate(1.3 2.025)">
        <path id="Path_138" data-name="Path 138" class="cls-1" d="M49.157,14.255q-23.979-24.46-47.857,0" transform="translate(-1.3 -2.025)"/>
        <path id="Path_139" data-name="Path 139" class="cls-1" d="M143.157,21q-23.9,24.46-47.857,0" transform="translate(-47.443 -8.77)"/>
      </g>
      <g id="Group_3" data-name="Group 3" transform="translate(97.014 2.025)">
        <path id="Path_140" data-name="Path 140" class="cls-1" d="M237.157,14.255q-23.9-24.46-47.857,0" transform="translate(-189.3 -2.025)"/>
        <path id="Path_141" data-name="Path 141" class="cls-1" d="M331.157,21q-23.9,24.46-47.857,0" transform="translate(-235.443 -8.77)"/>
      </g>
      <g id="Group_4" data-name="Group 4" transform="translate(192.729 2.025)">
        <path id="Path_142" data-name="Path 142" class="cls-1" d="M425.157,14.255q-23.9-24.46-47.857,0" transform="translate(-377.3 -2.025)"/>
        <path id="Path_143" data-name="Path 143" class="cls-1" d="M519.157,21q-23.9,24.46-47.857,0" transform="translate(-423.443 -8.77)"/>
      </g>
      <g id="Group_8" data-name="Group 8" transform="translate(288.729 2.025)">
        <path id="Path_142-2" data-name="Path 142" class="cls-1" d="M425.157,14.255q-23.9-24.46-47.857,0" transform="translate(-377.3 -2.025)"/>
      </g>
    </g>
    <g id="Group_47" data-name="Group 47" transform="translate(755.586 526.485) rotate(180)">
      <g id="Group_2-2" data-name="Group 2" transform="translate(1.3 2.025)">
        <path id="Path_138-2" data-name="Path 138" class="cls-1" d="M49.157,14.255q-23.979-24.46-47.857,0" transform="translate(-1.3 -2.025)"/>
        <path id="Path_139-2" data-name="Path 139" class="cls-1" d="M143.157,21q-23.9,24.46-47.857,0" transform="translate(-47.443 -8.77)"/>
      </g>
      <g id="Group_3-2" data-name="Group 3" transform="translate(97.014 2.025)">
        <path id="Path_140-2" data-name="Path 140" class="cls-1" d="M237.157,14.255q-23.9-24.46-47.857,0" transform="translate(-189.3 -2.025)"/>
        <path id="Path_141-2" data-name="Path 141" class="cls-1" d="M331.157,21q-23.9,24.46-47.857,0" transform="translate(-235.443 -8.77)"/>
      </g>
      <g id="Group_4-2" data-name="Group 4" transform="translate(192.729 2.025)">
        <path id="Path_142-3" data-name="Path 142" class="cls-1" d="M425.157,14.255q-23.9-24.46-47.857,0" transform="translate(-377.3 -2.025)"/>
        <path id="Path_143-2" data-name="Path 143" class="cls-1" d="M519.157,21q-23.9,24.46-47.857,0" transform="translate(-423.443 -8.77)"/>
      </g>
      <g id="Group_8-2" data-name="Group 8" transform="translate(288.729 2.025)">
        <path id="Path_142-4" data-name="Path 142" class="cls-1" d="M425.157,14.255q-23.9-24.46-47.857,0" transform="translate(-377.3 -2.025)"/>
      </g>
    </g>
  </g>
</svg>
