<svg xmlns="http://www.w3.org/2000/svg" viewBox="0 0 479.143 35.46">
  <defs>
    <style>
      .cls-1 {
        fill: none;
        stroke: #17c0f2;
        stroke-miterlimit: 10;
        stroke-width: 11px;
      }
    </style>
  </defs>
  <g id="Group_7" data-name="Group 7" transform="translate(-1.3 3.475)">
    <g id="Group_2" data-name="Group 2" transform="translate(1.3 2.025)">
      <path id="Path_138" data-name="Path 138" class="cls-1" d="M49.157,14.255c-15.986-16.307-27.333,0-47.857,0" transform="translate(-1.3 -2.025)"/>
      <path id="Path_139" data-name="Path 139" class="cls-1" d="M143.157,21q-23.9,24.46-47.857,0" transform="translate(-47.443 -8.77)"/>
    </g>
    <g id="Group_3" data-name="Group 3" transform="translate(97.014 2.025)">
      <path id="Path_140" data-name="Path 140" class="cls-1" d="M237.157,14.255q-23.9-24.46-47.857,0" transform="translate(-189.3 -2.025)"/>
      <path id="Path_141" data-name="Path 141" class="cls-1" d="M331.157,21q-23.9,24.46-47.857,0" transform="translate(-235.443 -8.77)"/>
    </g>
    <g id="Group_4" data-name="Group 4" transform="translate(192.729 2.025)">
      <path id="Path_142" data-name="Path 142" class="cls-1" d="M425.157,14.255q-23.9-24.46-47.857,0" transform="translate(-377.3 -2.025)"/>
      <path id="Path_143" data-name="Path 143" class="cls-1" d="M519.157,21q-23.9,24.46-47.857,0" transform="translate(-423.443 -8.77)"/>
    </g>
    <g id="Group_8" data-name="Group 8" transform="translate(288.729 2.025)">
      <path id="Path_142-2" data-name="Path 142" class="cls-1" d="M425.157,14.255q-23.9-24.46-47.857,0" transform="translate(-377.3 -2.025)"/>
      <path id="Path_143-2" data-name="Path 143" class="cls-1" d="M519.157,21q-23.9,24.46-47.857,0" transform="translate(-423.443 -8.77)"/>
    </g>
    <g id="Group_9" data-name="Group 9" transform="translate(384.729 2.025)">
      <path id="Path_142-3" data-name="Path 142" class="cls-1" d="M425.157,14.255q-23.9-24.46-47.857,0" transform="translate(-377.3 -2.025)"/>
      <path id="Path_143-3" data-name="Path 143" class="cls-1" d="M519.157,21c-20,0-31.922,16.307-47.857,0" transform="translate(-423.443 -8.77)"/>
    </g>
  </g>
</svg>
